<svg width="64" height="64" viewBox="0 0 64 64" fill="none" xmlns="http://www.w3.org/2000/svg">
<path d="M45.8825 7H19.1175C16.853 7 15 8.87514 15 11.1666V52.8334C15 55.1253 16.853 57 19.1175 57H45.8825C48.1474 57 50 55.1249 50 52.8334V11.1666C50 8.87514 48.1474 7 45.8825 7V7ZM22.2057 52.8343C20.5586 52.8343 19.1175 51.376 19.1175 49.7093C19.1175 48.0425 20.5586 46.5842 22.2057 46.5842C23.8528 46.5842 25.2939 48.0425 25.2939 49.7093C25.2939 51.376 23.8528 52.8343 22.2057 52.8343V52.8343ZM22.2057 42.4172C20.5586 42.4172 19.1175 40.9589 19.1175 39.2922C19.1175 37.6254 20.5586 36.1671 22.2057 36.1671C23.8528 36.1671 25.2939 37.6254 25.2939 39.2922C25.2939 40.9589 23.8528 42.4172 22.2057 42.4172V42.4172ZM22.2057 32.0006C20.5586 32.0006 19.1175 30.5423 19.1175 28.8755C19.1175 27.2088 20.5586 25.7505 22.2057 25.7505C23.8528 25.7505 25.2939 27.2088 25.2939 28.8755C25.2939 30.5423 23.8528 32.0006 22.2057 32.0006V32.0006ZM32.5001 52.8345C30.853 52.8345 29.4119 51.3763 29.4119 49.7095C29.4119 48.0427 30.853 46.5845 32.5001 46.5845C34.1472 46.5845 35.5883 48.0427 35.5883 49.7095C35.5883 51.3763 34.1472 52.8345 32.5001 52.8345ZM32.5001 42.4174C30.853 42.4174 29.4119 40.9592 29.4119 39.2924C29.4119 37.6256 30.853 36.1674 32.5001 36.1674C34.1472 36.1674 35.5883 37.6256 35.5883 39.2924C35.5883 40.9592 34.1472 42.4174 32.5001 42.4174ZM32.5001 32.0008C30.853 32.0008 29.4119 30.5425 29.4119 28.8757C29.4119 27.209 30.853 25.7507 32.5001 25.7507C34.1472 25.7507 35.5883 27.209 35.5883 28.8757C35.5883 30.5425 34.1472 32.0008 32.5001 32.0008ZM45.8821 49.7097C45.8821 51.3765 44.441 52.8348 42.7938 52.8348C41.1467 52.8348 39.7056 51.3765 39.7056 49.7097V39.2931C39.7056 37.6263 41.1467 36.168 42.7938 36.168C44.441 36.168 45.8821 37.6263 45.8821 39.2931V49.7097ZM42.7938 32.0008C41.1467 32.0008 39.7056 30.5425 39.7056 28.8757C39.7056 27.209 41.1467 25.7507 42.7938 25.7507C44.441 25.7507 45.8821 27.209 45.8821 28.8757C45.8821 30.5425 44.441 32.0008 42.7938 32.0008ZM45.8821 21.5841H19.1171V13.2505C19.1171 12.0006 19.9404 11.167 21.176 11.167H43.8227C45.0578 11.167 45.8816 12.0002 45.8816 13.2505L45.8821 21.5841Z" fill="black"/>
</svg>
