<svg width="64" height="64" viewBox="0 0 64 64" fill="none" xmlns="http://www.w3.org/2000/svg">
<path d="M34.6667 21.3333C36.7884 21.3333 38.8232 22.1762 40.3235 23.6765C41.8238 25.1768 42.6667 27.2116 42.6667 29.3333C42.6667 30.0406 42.9476 30.7189 43.4477 31.219C43.9478 31.719 44.6261 32 45.3333 32C46.0406 32 46.7189 31.719 47.219 31.219C47.7191 30.7189 48 30.0406 48 29.3333C48 25.7971 46.5952 22.4057 44.0948 19.9052C41.5943 17.4048 38.2029 16 34.6667 16C33.9594 16 33.2811 16.281 32.781 16.781C32.281 17.2811 32 17.9594 32 18.6667C32 19.3739 32.281 20.0522 32.781 20.5523C33.2811 21.0524 33.9594 21.3333 34.6667 21.3333Z" fill="black"/>
<path d="M34.6667 10.6667C39.6174 10.6667 44.3653 12.6334 47.866 16.134C51.3667 19.6347 53.3333 24.3827 53.3333 29.3334C53.3333 30.0406 53.6143 30.7189 54.1144 31.219C54.6145 31.7191 55.2928 32 56 32C56.7073 32 57.3855 31.7191 57.8856 31.219C58.3857 30.7189 58.6667 30.0406 58.6667 29.3334C58.6667 22.9682 56.1381 16.8637 51.6372 12.3628C47.1364 7.86194 41.0319 5.33337 34.6667 5.33337C33.9594 5.33337 33.2812 5.61433 32.7811 6.11442C32.281 6.61452 32 7.2928 32 8.00004C32 8.70728 32.281 9.38556 32.7811 9.88566C33.2812 10.3858 33.9594 10.6667 34.6667 10.6667ZM58 42.4267C57.8533 41.9986 57.6001 41.6149 57.2642 41.3117C56.9284 41.0084 56.5208 40.7957 56.08 40.6934L40.08 37.04C39.6457 36.9416 39.1937 36.9534 38.7651 37.0745C38.3366 37.1956 37.9452 37.4221 37.6267 37.7334C37.2533 38.08 37.2267 38.1067 35.4933 41.4134C29.7419 38.7631 25.1333 34.1357 22.5067 28.3734C25.8933 26.6667 25.92 26.6667 26.2667 26.2667C26.5779 25.9482 26.8044 25.5568 26.9255 25.1283C27.0466 24.6997 27.0585 24.2477 26.96 23.8134L23.3067 8.00004C23.2044 7.55923 22.9916 7.1517 22.6884 6.8158C22.3852 6.47991 22.0014 6.22671 21.5733 6.08004C20.9506 5.85761 20.3075 5.69684 19.6533 5.60004C18.9793 5.44376 18.2916 5.35444 17.6 5.33337C14.3467 5.33337 11.2266 6.62575 8.92617 8.9262C6.62572 11.2266 5.33334 14.3467 5.33334 17.6C5.34746 28.4873 9.67864 38.9245 17.3771 46.623C25.0755 54.3214 35.5128 58.6526 46.4 58.6667C48.0109 58.6667 49.606 58.3494 51.0943 57.733C52.5825 57.1165 53.9348 56.2129 55.0739 55.0739C56.2129 53.9348 57.1165 52.5825 57.7329 51.0943C58.3494 49.606 58.6667 48.0109 58.6667 46.4C58.6675 45.7213 58.614 45.0436 58.5067 44.3734C58.3946 43.711 58.2251 43.0597 58 42.4267Z" fill="black"/>
</svg>
