<svg width="64" height="64" viewBox="0 0 64 64" fill="none" xmlns="http://www.w3.org/2000/svg">
<path d="M48.2615 15.7385C39.2835 6.75384 24.7173 6.75384 15.7385 15.7385C6.75384 24.7165 6.75384 39.2827 15.7385 48.2615C24.7165 57.2462 39.2827 57.2462 48.2615 48.2615C57.2462 39.2835 57.2462 24.7173 48.2615 15.7385ZM15.8674 30.4221C17.5071 28.7882 20.1741 28.7882 21.8137 30.4221C23.5939 32.2077 25.3737 33.9875 27.1593 35.7734C32.1173 30.2873 37.0754 24.8067 42.0392 19.3213C43.6227 17.5694 46.2002 17.5132 47.9689 19.0236C48.7268 19.6749 49.2998 21 49.3502 21.9884C49.4009 23.0273 49.0582 24.0772 48.2663 24.9532C42.578 31.2421 36.295 38.486 30.3537 44.7525C28.8097 46.3697 26.2717 46.5102 24.5701 45.0503C21.7684 42.6413 18.5619 39.0646 15.8664 36.3696C14.2326 34.73 14.2326 32.0629 15.8664 30.4233L15.8674 30.4221Z" fill="black"/>
</svg>
