<svg width="64" height="64" viewBox="0 0 64 64" fill="none" xmlns="http://www.w3.org/2000/svg">
<path d="M16.6693 54.1713C16.7235 54.9339 17.0731 55.6456 17.6431 56.1549C18.2136 56.6642 18.9604 56.931 19.7242 56.8989C58.052 56.494 45.2279 62.9978 48.1605 23.5946H16.0422L16.6693 54.1713ZM38.9346 34.7663C39.256 34.5335 42.0725 35.1488 42.1503 35.6369C43.4644 45.5393 36.7723 48.355 34.9152 48.9431C34.8819 49.3589 36.6172 51.9814 35.3367 51.8483C35.2091 51.5436 24.564 50.1849 25.6342 49.1648L30.3745 41.874C31.1008 40.9094 31.9821 43.8865 32.3152 44.1414C40.4649 42.2344 38.4969 35.3764 38.9346 34.7607L38.9346 34.7663ZM29.2874 29.8099C29.3207 29.3942 27.58 26.7716 28.8659 26.9047C28.9935 27.2095 39.6327 28.5681 38.5629 29.5882L33.8285 36.862C33.091 37.8266 32.2209 34.8549 31.8878 34.6C23.7323 36.5016 25.7004 43.3596 25.268 43.9807C24.9409 44.2081 22.1242 43.5982 22.0524 43.1101C20.7386 33.2077 27.4528 30.392 29.2879 29.8039L29.2874 29.8099Z" fill="black"/>
<path d="M40.7593 9.85018C40.7593 9.09411 40.4592 8.36936 39.9247 7.83493C39.3902 7.30046 38.6654 7.00035 37.9094 7.00035H26.9763C24.681 6.96709 23.855 9.31232 24.1265 11.275H40.7593L40.7593 9.85018Z" fill="black"/>
<path d="M47.9283 14.4297C47.9283 13.8136 47.6839 13.2227 47.248 12.7872C46.8125 12.3513 46.2216 12.1065 45.6055 12.1065H19.2811C17.6177 12.1065 16.7418 13.6975 16.9579 15.2059H47.9287L47.9283 14.4297Z" fill="black"/>
<path d="M48.9708 16.0375H15.915C15.4118 16.0387 14.9296 16.2398 14.5741 16.5963C14.2187 16.9529 14.0188 17.4356 14.0188 17.939C14.1131 19.486 13.4309 22.8069 15.9149 22.7625H48.9707C51.6431 23.1948 51.7096 15.6491 48.9707 16.0374L48.9708 16.0375Z" fill="black"/>
</svg>
