<svg width="64" height="64" viewBox="0 0 64 64" fill="none" xmlns="http://www.w3.org/2000/svg">
<g clip-path="url(#clip0_20_358)">
<path d="M62.0735 23.728L38.2527 17.3408L34.0831 1.78565C33.7343 0.486447 32.3391 -0.268753 30.9695 0.0928468L1.92633 7.87525C0.556725 8.24005 -0.268875 9.59685 0.0799252 10.896L10.4159 49.4592C10.7647 50.7584 12.1567 51.5168 13.5231 51.1456L25.0847 48.0512L23.5103 53.9328C23.1615 55.232 23.9871 56.5889 25.3567 56.9505L51.3087 63.9073C52.6783 64.2753 54.0671 63.52 54.4191 62.2144L63.9231 26.7456C64.2687 25.4464 63.4431 24.0896 62.0735 23.728ZM5.22553 11.6192L30.2815 4.91205L39.5551 39.5296L14.4991 46.2368L5.22553 11.6192ZM50.1695 59.0816L28.3647 53.1201L30.0799 46.7136L42.5631 43.3632C43.9327 43.0016 44.7647 41.6448 44.4127 40.3456L39.5871 22.3392L58.6175 27.5584L50.1695 59.0816Z" fill="black"/>
</g>
<defs>
<clipPath id="clip0_20_358">
<rect width="64" height="64" fill="white"/>
</clipPath>
</defs>
</svg>
