<svg width="64" height="64" viewBox="0 0 64 64" fill="none" xmlns="http://www.w3.org/2000/svg">
<path d="M33.6 8C33.6 7.57566 33.4314 7.16869 33.1314 6.86863C32.8313 6.56857 32.4243 6.4 32 6.4C31.5757 6.4 31.1687 6.56857 30.8686 6.86863C30.5686 7.16869 30.4 7.57566 30.4 8V11.2C30.4 11.6243 30.5686 12.0313 30.8686 12.3314C31.1687 12.6314 31.5757 12.8 32 12.8C32.4243 12.8 32.8313 12.6314 33.1314 12.3314C33.4314 12.0313 33.6 11.6243 33.6 11.2V8ZM32 27.2C32 26.7757 31.8314 26.3687 31.5314 26.0686C31.2313 25.7686 30.8243 25.6 30.4 25.6C29.9757 25.6 29.5687 25.7686 29.2686 26.0686C28.9686 26.3687 28.8 26.7757 28.8 27.2V33.6C28.8 34.0243 28.9686 34.4313 29.2686 34.7314C29.5687 35.0314 29.9757 35.2 30.4 35.2H35.2C35.6243 35.2 36.0313 35.0314 36.3314 34.7314C36.6314 34.4313 36.8 34.0243 36.8 33.6C36.8 33.1757 36.6314 32.7687 36.3314 32.4686C36.0313 32.1686 35.6243 32 35.2 32H32V27.2ZM32 17.6C30.109 17.6 28.2364 17.9725 26.4894 18.6961C24.7423 19.4198 23.1548 20.4805 21.8177 21.8177C20.4805 23.1548 19.4198 24.7423 18.6961 26.4894C17.9725 28.2364 17.6 30.109 17.6 32C17.6 33.891 17.9725 35.7636 18.6961 37.5106C19.4198 39.2577 20.4805 40.8452 21.8177 42.1823C23.1548 43.5195 24.7423 44.5802 26.4894 45.3039C28.2364 46.0275 30.109 46.4 32 46.4C35.8191 46.4 39.4818 44.8829 42.1823 42.1823C44.8829 39.4818 46.4 35.8191 46.4 32C46.4 28.1809 44.8829 24.5182 42.1823 21.8177C39.4818 19.1171 35.8191 17.6 32 17.6ZM20.8 32C20.8 30.5292 21.0897 29.0728 21.6525 27.7139C22.2154 26.3551 23.0404 25.1204 24.0804 24.0804C25.1204 23.0404 26.3551 22.2154 27.7139 21.6526C29.0728 21.0897 30.5292 20.8 32 20.8C33.4708 20.8 34.9272 21.0897 36.2861 21.6526C37.6449 22.2154 38.8796 23.0404 39.9196 24.0804C40.9596 25.1204 41.7846 26.3551 42.3475 27.7139C42.9103 29.0728 43.2 30.5292 43.2 32C43.2 34.9704 42.02 37.8192 39.9196 39.9196C37.8192 42.02 34.9704 43.2 32 43.2C29.0296 43.2 26.1808 42.02 24.0804 39.9196C21.98 37.8192 20.8 34.9704 20.8 32ZM32 51.2C32.4243 51.2 32.8313 51.3686 33.1314 51.6686C33.4314 51.9687 33.6 52.3757 33.6 52.8V56C33.6 56.4243 33.4314 56.8313 33.1314 57.1314C32.8313 57.4314 32.4243 57.6 32 57.6C31.5757 57.6 31.1687 57.4314 30.8686 57.1314C30.5686 56.8313 30.4 56.4243 30.4 56V52.8C30.4 52.3757 30.5686 51.9687 30.8686 51.6686C31.1687 51.3686 31.5757 51.2 32 51.2ZM8 30.4C7.57565 30.4 7.16869 30.5686 6.86863 30.8686C6.56857 31.1687 6.4 31.5757 6.4 32C6.4 32.4243 6.56857 32.8313 6.86863 33.1314C7.16869 33.4314 7.57565 33.6 8 33.6H11.2C11.6243 33.6 12.0313 33.4314 12.3314 33.1314C12.6314 32.8313 12.8 32.4243 12.8 32C12.8 31.5757 12.6314 31.1687 12.3314 30.8686C12.0313 30.5686 11.6243 30.4 11.2 30.4H8ZM51.2 32C51.2 31.5757 51.3686 31.1687 51.6686 30.8686C51.9687 30.5686 52.3757 30.4 52.8 30.4H56C56.4243 30.4 56.8313 30.5686 57.1314 30.8686C57.4314 31.1687 57.6 31.5757 57.6 32C57.6 32.4243 57.4314 32.8313 57.1314 33.1314C56.8313 33.4314 56.4243 33.6 56 33.6H52.8C52.3757 33.6 51.9687 33.4314 51.6686 33.1314C51.3686 32.8313 51.2 32.4243 51.2 32ZM13.2672 48.4672C12.9668 48.7676 12.798 49.1751 12.798 49.6C12.798 50.0249 12.9668 50.4324 13.2672 50.7328C13.5676 51.0332 13.9751 51.202 14.4 51.202C14.8249 51.202 15.2324 51.0332 15.5328 50.7328L18.7328 47.5328C18.8816 47.384 18.9996 47.2074 19.0801 47.0131C19.1606 46.8187 19.202 46.6104 19.202 46.4C19.202 46.1896 19.1606 45.9813 19.0801 45.7869C18.9996 45.5926 18.8816 45.416 18.7328 45.2672C18.584 45.1184 18.4074 45.0004 18.2131 44.9199C18.0187 44.8394 17.8104 44.798 17.6 44.798C17.3896 44.798 17.1813 44.8394 16.9869 44.9199C16.7926 45.0004 16.616 45.1184 16.4672 45.2672L13.2672 48.4672ZM45.2672 16.4672L48.4672 13.2672C48.7676 12.9668 49.1751 12.798 49.6 12.798C50.0249 12.798 50.4324 12.9668 50.7328 13.2672C51.0332 13.5676 51.202 13.9751 51.202 14.4C51.202 14.8249 51.0332 15.2324 50.7328 15.5328L47.5328 18.7328C47.384 18.8816 47.2074 18.9996 47.0131 19.0801C46.8187 19.1606 46.6104 19.202 46.4 19.202C46.1896 19.202 45.9813 19.1606 45.7869 19.0801C45.5926 18.9996 45.416 18.8816 45.2672 18.7328C45.1184 18.584 45.0004 18.4074 44.9199 18.2131C44.8394 18.0187 44.798 17.8104 44.798 17.6C44.798 17.3896 44.8394 17.1813 44.9199 16.9869C45.0004 16.7926 45.1184 16.616 45.2672 16.4672ZM15.5328 13.2672C15.384 13.1184 15.2074 13.0004 15.0131 12.9199C14.8187 12.8394 14.6104 12.798 14.4 12.798C14.1896 12.798 13.9813 12.8394 13.7869 12.9199C13.5926 13.0004 13.416 13.1184 13.2672 13.2672C13.1184 13.416 13.0004 13.5926 12.9199 13.7869C12.8394 13.9813 12.798 14.1896 12.798 14.4C12.798 14.6104 12.8394 14.8187 12.9199 15.0131C13.0004 15.2074 13.1184 15.384 13.2672 15.5328L16.4672 18.7328C16.7676 19.0332 17.1751 19.202 17.6 19.202C18.0249 19.202 18.4324 19.0332 18.7328 18.7328C19.0332 18.4324 19.202 18.0249 19.202 17.6C19.202 17.1751 19.0332 16.7676 18.7328 16.4672L15.5328 13.2672ZM47.5328 45.2672L50.7328 48.4672C51.0332 48.7676 51.202 49.1751 51.202 49.6C51.202 50.0249 51.0332 50.4324 50.7328 50.7328C50.4324 51.0332 50.0249 51.202 49.6 51.202C49.1751 51.202 48.7676 51.0332 48.4672 50.7328L45.2672 47.5328C45.1184 47.384 45.0004 47.2074 44.9199 47.0131C44.8394 46.8187 44.798 46.6104 44.798 46.4C44.798 46.1896 44.8394 45.9813 44.9199 45.7869C45.0004 45.5926 45.1184 45.416 45.2672 45.2672C45.416 45.1184 45.5926 45.0004 45.7869 44.9199C45.9813 44.8394 46.1896 44.798 46.4 44.798C46.6104 44.798 46.8187 44.8394 47.0131 44.9199C47.2074 45.0004 47.384 45.1184 47.5328 45.2672Z" fill="black"/>
</svg>
