<svg width="64" height="64" viewBox="0 0 64 64" fill="none" xmlns="http://www.w3.org/2000/svg">
<path d="M16 18C14.4177 18 12.871 17.5308 11.5554 16.6518C10.2398 15.7727 9.21447 14.5233 8.60896 13.0615C8.00346 11.5997 7.84504 9.99113 8.15372 8.43928C8.4624 6.88743 9.22433 5.46197 10.3431 4.34315C11.462 3.22433 12.8874 2.4624 14.4393 2.15372C15.9911 1.84504 17.5997 2.00346 19.0615 2.60896C20.5233 3.21446 21.7727 4.23984 22.6518 5.55544C23.5308 6.87103 24 8.41775 24 10C24 12.1217 23.1571 14.1566 21.6569 15.6569C20.1566 17.1571 18.1217 18 16 18ZM16 6C15.2089 6 14.4355 6.2346 13.7777 6.67412C13.1199 7.11365 12.6072 7.73836 12.3045 8.46927C12.0017 9.20017 11.9225 10.0044 12.0769 10.7804C12.2312 11.5563 12.6122 12.269 13.1716 12.8284C13.731 13.3878 14.4437 13.7688 15.2196 13.9231C15.9956 14.0775 16.7998 13.9983 17.5307 13.6955C18.2616 13.3928 18.8864 12.8801 19.3259 12.2223C19.7654 11.5645 20 10.7911 20 10C20 8.93913 19.5786 7.92172 18.8284 7.17157C18.0783 6.42143 17.0609 6 16 6ZM48 18C46.4178 18 44.871 17.5308 43.5554 16.6518C42.2398 15.7727 41.2145 14.5233 40.609 13.0615C40.0035 11.5997 39.845 9.99113 40.1537 8.43928C40.4624 6.88743 41.2243 5.46197 42.3431 4.34315C43.462 3.22433 44.8874 2.4624 46.4393 2.15372C47.9911 1.84504 49.5997 2.00346 51.0615 2.60896C52.5233 3.21446 53.7727 4.23984 54.6518 5.55544C55.5308 6.87103 56 8.41775 56 10C56 12.1217 55.1571 14.1566 53.6569 15.6569C52.1566 17.1571 50.1217 18 48 18ZM48 6C47.2089 6 46.4355 6.2346 45.7777 6.67412C45.1199 7.11365 44.6072 7.73836 44.3045 8.46927C44.0017 9.20017 43.9225 10.0044 44.0769 10.7804C44.2312 11.5563 44.6122 12.269 45.1716 12.8284C45.731 13.3878 46.4437 13.7688 47.2196 13.9231C47.9956 14.0775 48.7998 13.9983 49.5307 13.6955C50.2616 13.3928 50.8864 12.8801 51.3259 12.2223C51.7654 11.5645 52 10.7911 52 10C52 8.93913 51.5786 7.92172 50.8284 7.17157C50.0783 6.42143 49.0609 6 48 6ZM52 60H44C42.9391 60 41.9217 59.5786 41.1716 58.8284C40.4214 58.0783 40 57.0609 40 56V42H44V56H52V38H56V26C56 25.4696 55.7893 24.9609 55.4142 24.5858C55.0391 24.2107 54.5304 24 54 24H41.16L32 40L22.84 24H10C9.46957 24 8.96086 24.2107 8.58579 24.5858C8.21071 24.9609 8 25.4696 8 26V38H12V56H20V42H24V56C24 57.0609 23.5786 58.0783 22.8284 58.8284C22.0783 59.5786 21.0609 60 20 60H12C10.9391 60 9.92172 59.5786 9.17157 58.8284C8.42143 58.0783 8 57.0609 8 56V42C6.93913 42 5.92172 41.5786 5.17157 40.8284C4.42143 40.0783 4 39.0609 4 38V26C4 24.4087 4.63214 22.8826 5.75736 21.7574C6.88258 20.6321 8.4087 20 10 20H25.16L32 32L38.84 20H54C55.5913 20 57.1174 20.6321 58.2426 21.7574C59.3679 22.8826 60 24.4087 60 26V38C60 39.0609 59.5786 40.0783 58.8284 40.8284C58.0783 41.5786 57.0609 42 56 42V56C56 57.0609 55.5786 58.0783 54.8284 58.8284C54.0783 59.5786 53.0609 60 52 60Z" fill="black"/>
</svg>
