<svg width="64" height="64" viewBox="0 0 64 64" fill="none" xmlns="http://www.w3.org/2000/svg">
<path d="M36.2602 43.1033C35.3994 43.5386 34.64 44.0164 33.8171 44.324C28.8578 46.1768 24.4975 44.3662 22.6001 39.4428C20.7078 34.5331 20.7532 29.6165 23.4642 24.9391C25.4994 21.4278 29.4846 19.5869 33.0532 20.538C34.0024 20.7909 34.8671 21.3602 35.855 21.8239C35.8887 20.6887 36.641 20.6167 37.5239 20.6618C38.3778 20.7054 39.241 20.7212 40.0913 20.6468C41.0696 20.561 41.3862 20.944 41.3787 21.9017C41.3462 26.1446 41.3662 30.3878 41.3668 34.6304C41.3671 36.2264 41.3934 37.823 41.3548 39.4181C41.3354 40.217 41.6176 40.5333 42.4369 40.5109C45.5703 40.4254 45.131 40.9878 45.9144 38.1659C47.1741 33.6291 47.1319 29.0698 45.4899 24.6197C41.9645 15.0644 29.8312 13.4961 23.1499 19.3118C18.2316 23.593 16.8027 29.1121 17.5517 35.3386C18.0504 39.4859 19.6745 43.1152 23.0013 45.8339C26.1939 48.4429 29.8854 49.3656 33.9137 48.9697C36.2261 48.7425 38.5181 48.3104 41.0179 47.9411C41.0179 49.4074 41.0406 50.937 40.9883 52.4636C40.982 52.6505 40.5945 52.9384 40.3464 52.986C34.6534 54.0773 28.964 54.5335 23.5021 52.0271C17.5151 49.2797 14.0332 44.4287 12.6394 38.1166C11.4333 32.6556 11.8949 27.3121 14.3535 22.177C18.3872 13.7522 28.571 9.11764 37.5247 11.7262C46.0223 14.2021 51.2684 20.8154 51.9281 29.9222C52.2729 34.679 51.3687 39.2073 49.4014 43.5464C48.9804 44.4748 48.4509 44.8895 47.3707 44.8566C44.6092 44.7728 41.8439 44.8207 39.0798 44.8276C37.0903 44.8326 37.0903 44.841 36.2594 43.1033L36.2602 43.1033ZM35.8966 32.1732H35.8894C35.8894 30.4224 35.9205 28.6706 35.8661 26.9216C35.8538 26.5221 35.6589 25.9609 35.3581 25.7639C32.4684 23.8719 29.0056 25.0379 27.8138 28.2745C26.8268 30.9543 26.965 33.6969 27.4443 36.4467C28.2407 41.018 32.678 41.1962 35.0463 39.07C35.4756 38.6846 35.8246 37.9949 35.8586 37.4244C35.9633 35.6798 35.8966 33.925 35.8966 32.1742L35.8966 32.1732Z" fill="black"/>
<rect x="0.5" y="0.5" width="63" height="63" rx="31.5" stroke="black"/>
</svg>
