<svg width="64" height="64" viewBox="0 0 64 64" fill="none" xmlns="http://www.w3.org/2000/svg">
<path d="M50.986 23.3449L35.7128 10.363C34.6775 9.48339 33.3638 9 32.0047 9C30.6464 9 29.332 9.48339 28.2966 10.363L13.0235 23.3449C11.7417 24.4315 11.002 26.0261 11 27.7068V48.8501C11 50.3689 11.6033 51.8258 12.6772 52.8998C13.7512 53.9739 15.2082 54.5771 16.7269 54.5771H23.4093C24.6751 54.5771 25.8889 54.0744 26.7838 53.1795C27.6787 52.2839 28.1821 51.0701 28.1821 49.8043V41.6811C28.1867 40.3707 29.2481 39.3093 30.5584 39.3047H33.4222C34.0554 39.3021 34.6633 39.5511 35.1128 39.9965C35.5616 40.4427 35.8159 41.0486 35.8179 41.6811V49.8044C35.8179 51.0701 36.3213 52.284 37.2162 53.1795C38.1111 54.0744 39.3249 54.5771 40.5907 54.5771H47.2731C48.7919 54.5771 50.2487 53.9739 51.3228 52.8999C52.3968 51.8259 53 50.369 53 48.8502V27.7069C53.0007 26.0283 52.2643 24.4336 50.986 23.3449ZM49.1822 48.8501C49.1822 49.3562 48.9812 49.8416 48.6229 50.1998C48.2647 50.558 47.7793 50.7591 47.2733 50.7591H40.5909C40.0642 50.7591 39.6367 50.3316 39.6367 49.8043V41.6811C39.6341 40.0391 38.9809 38.4651 37.8197 37.3031C36.6578 36.1418 35.0837 35.4886 33.4417 35.486H30.5779C28.9326 35.4834 27.3532 36.1352 26.188 37.2964C25.0221 38.4583 24.3661 40.0356 24.3636 41.6811V49.8043C24.3636 50.0573 24.263 50.3003 24.0839 50.4794C23.9048 50.6586 23.6624 50.7591 23.4094 50.7591H16.7271C15.673 50.7591 14.8181 49.9042 14.8181 48.8502V27.7069C14.8181 27.1489 15.0625 26.6189 15.4866 26.256L30.7598 13.2741C31.4729 12.6688 32.5189 12.6688 33.2314 13.2741L48.5046 26.256C48.9321 26.6169 49.1798 27.1476 49.1824 27.7069L49.1822 48.8501Z" fill="black"/>
<path d="M49.1822 48.8501C49.1822 49.3562 48.9812 49.8416 48.6229 50.1998C48.2647 50.558 47.7793 50.7591 47.2733 50.7591H40.5909C40.0642 50.7591 39.6367 50.3316 39.6367 49.8043V41.6811C39.6341 40.0391 38.9809 38.4651 37.8197 37.3031C36.6578 36.1418 35.0837 35.4886 33.4417 35.486H30.5779C28.9326 35.4834 27.3532 36.1352 26.188 37.2964C25.0221 38.4583 24.3661 40.0356 24.3636 41.6811V49.8043C24.3636 50.0573 24.263 50.3003 24.0839 50.4794C23.9048 50.6586 23.6624 50.7591 23.4094 50.7591H16.7271C15.673 50.7591 14.8181 49.9042 14.8181 48.8502V27.7069C14.8181 27.1489 15.0625 26.6189 15.4866 26.256L30.7598 13.2741C31.4729 12.6688 32.5189 12.6688 33.2314 13.2741L48.5046 26.256C48.9321 26.6169 49.1798 27.1476 49.1824 27.7069L49.1822 48.8501Z" fill="black"/>
</svg>
