<svg width="16" height="16" viewBox="0 0 16 16" fill="none" xmlns="http://www.w3.org/2000/svg">
<path d="M5.228 1.6928C4.396 1.4816 3.524 1.5712 2.8408 1.9536C2.1448 2.3424 1.6568 3.032 1.6328 3.9544C1.596 5.396 1.9296 7.3304 3.2544 9.6008C4.5624 11.8432 6.0064 13.1872 7.2048 13.9856C7.9616 14.4904 8.7976 14.504 9.512 14.1752C10.216 13.8512 10.7872 13.204 11.084 12.4016C11.1579 12.202 11.1875 11.9888 11.171 11.7767C11.1544 11.5645 11.092 11.3585 10.988 11.1728L10.2248 9.8112C9.99019 9.39214 9.61262 9.07148 9.16108 8.90785C8.70955 8.74422 8.21421 8.74853 7.7656 8.92L7.2328 9.124C6.9744 9.2224 6.7368 9.1768 6.6024 9.044C6.1504 8.6 5.8272 7.9976 5.6808 7.348C5.6344 7.1432 5.7288 6.9016 5.9544 6.7312L6.4352 6.368C6.8239 6.07469 7.09224 5.64965 7.18988 5.1726C7.28753 4.69554 7.20779 4.19925 6.9656 3.7768L6.188 2.4208C6.08498 2.24128 5.9469 2.08431 5.78198 1.95925C5.61705 1.83418 5.42866 1.74357 5.228 1.6928ZM2.4328 3.976C2.4488 3.3568 2.7624 2.9144 3.2312 2.652C3.7128 2.3824 4.3704 2.3 5.0312 2.468C5.12802 2.49246 5.21894 2.53616 5.29852 2.59649C5.3781 2.65683 5.44471 2.73257 5.4944 2.8192L6.2712 4.1752C6.41649 4.42857 6.46439 4.72622 6.40592 5.01238C6.34745 5.29853 6.18663 5.55354 5.9536 5.7296L5.4728 6.0928C5.0568 6.4064 4.7688 6.944 4.9 7.524C5.0776 8.3096 5.4704 9.0544 6.0416 9.6152C6.4592 10.0248 7.0544 10.0488 7.5184 9.8712L8.0512 9.6672C8.32039 9.56416 8.61768 9.56146 8.8887 9.65958C9.15972 9.75771 9.38637 9.95011 9.5272 10.2016L10.2896 11.564C10.3856 11.7352 10.4016 11.94 10.3336 12.124C10.1016 12.752 9.6656 13.2232 9.1776 13.448C8.7 13.668 8.16 13.6616 7.6488 13.32C6.552 12.5888 5.1928 11.3352 3.9448 9.1976C2.696 7.0536 2.4 5.2664 2.4336 3.976H2.4328ZM10.1944 1.6496C10.1017 1.59805 9.99228 1.58543 9.89025 1.61454C9.78824 1.64364 9.70196 1.71208 9.6504 1.8048C9.59884 1.89752 9.58623 2.00693 9.61533 2.10895C9.64444 2.21097 9.71288 2.29725 9.8056 2.3488L10.1128 2.52C11.0725 3.05313 11.8888 3.81068 12.4921 4.72793C13.0953 5.64517 13.4675 6.69483 13.5768 7.7872L13.6024 8.0392C13.6054 8.09314 13.6193 8.14591 13.6433 8.19432C13.6673 8.24273 13.7008 8.28579 13.7419 8.32089C13.7829 8.35599 13.8307 8.38241 13.8822 8.39856C13.9338 8.4147 13.9881 8.42024 14.0418 8.41483C14.0956 8.40942 14.1477 8.39319 14.195 8.36709C14.2423 8.341 14.2838 8.3056 14.317 8.26302C14.3503 8.22045 14.3746 8.17157 14.3884 8.11936C14.4023 8.06714 14.4054 8.01266 14.3976 7.9592L14.3728 7.708C14.2507 6.48688 13.8348 5.31347 13.1605 4.2881C12.4862 3.26273 11.5736 2.4159 10.5008 1.82L10.1944 1.6496ZM9.2568 3.7936C9.31144 3.7027 9.39996 3.63722 9.50287 3.61157C9.60579 3.58592 9.71468 3.60219 9.8056 3.6568L9.9048 3.716C10.5506 4.10316 11.1045 4.62594 11.5284 5.2482C11.9524 5.87045 12.2361 6.57734 12.36 7.32L12.3952 7.5336C12.4053 7.58598 12.4048 7.63985 12.3937 7.69203C12.3826 7.74421 12.3613 7.79365 12.3308 7.83744C12.3004 7.88124 12.2615 7.9185 12.2164 7.94703C12.1713 7.97557 12.121 7.99481 12.0684 8.00361C12.0158 8.01241 11.962 8.01061 11.9101 7.9983C11.8582 7.98598 11.8093 7.96342 11.7662 7.93192C11.7232 7.90043 11.6868 7.86064 11.6594 7.81491C11.632 7.76917 11.6139 7.71841 11.6064 7.6656L11.5704 7.452C11.4657 6.82372 11.2259 6.22565 10.8674 5.69912C10.509 5.1726 10.0405 4.73017 9.4944 4.4024L9.3952 4.3424C9.35012 4.31541 9.3108 4.2798 9.27949 4.23761C9.24818 4.19542 9.22549 4.14747 9.21271 4.09651C9.19993 4.04554 9.19732 3.99256 9.20502 3.94059C9.21272 3.88862 9.23059 3.83867 9.2576 3.7936H9.2568Z" fill="white"/>
</svg>
