<svg width="64" height="64" viewBox="0 0 64 64" fill="none" xmlns="http://www.w3.org/2000/svg">
<path d="M45.9643 41.4263L37.1524 38.4537C36.0553 38.088 34.8403 38.3947 34.0499 39.244C33.0118 40.3765 31.2778 40.5062 30.0746 39.5625L29.6381 39.2204C26.8187 37.0028 24.4006 34.3131 22.5013 31.2696C21.652 29.9131 22.0412 28.1437 23.3742 27.2588L23.504 27.1763C24.7662 26.3505 25.415 24.8524 25.1554 23.3542L23.964 16.3944C23.8106 15.5214 23.3624 14.7311 22.69 14.1531C21.7345 13.3391 20.4488 13.0324 19.2337 13.3627L19.0921 13.3981C16.2493 14.1531 13.9135 16.1939 12.8047 18.9306C12.4036 19.9097 12.1795 20.9478 12.1205 21.9977L12.0261 23.9559C11.9081 26.3034 12.1912 28.6508 12.8518 30.904L13.3827 32.7088C13.536 33.2396 13.7484 33.7586 13.9961 34.2541L14.1494 34.5608C16.1076 38.4771 18.8797 41.9335 22.2771 44.6938C25.2852 47.1475 28.6117 49.1764 32.1624 50.7336L32.4101 50.8397C34.2622 51.6537 36.2557 52.1137 38.2847 52.2199L39.6886 52.2907C42.0832 52.4087 44.3835 51.3706 45.8698 49.495C46.4006 48.8344 46.8017 48.0794 47.073 47.2773L47.7926 45.1539C48.3352 43.6203 47.5095 41.9453 45.9642 41.4263L45.9643 41.4263Z" fill="black"/>
<path d="M51.9803 30.7618C50.2463 21.5842 43.664 14.0231 34.793 11.0497C34.2975 10.8845 33.7667 11.144 33.6015 11.6395C33.4364 12.1349 33.6959 12.6658 34.1914 12.8309C42.4134 15.5913 48.5239 22.5982 50.1287 31.1033C50.2113 31.5515 50.6124 31.87 51.0606 31.87C51.1196 31.87 51.1786 31.87 51.2376 31.8582C51.7448 31.7639 52.0869 31.2684 51.9807 30.7612L51.9803 30.7618Z" fill="black"/>
<path d="M31.855 23.4721C35.6652 25.1471 38.4963 28.5445 39.4283 32.5789C39.5345 33.0154 39.9119 33.3103 40.3484 33.3103C40.4192 33.3103 40.49 33.2985 40.5607 33.2867C41.068 33.1687 41.3865 32.6615 41.2685 32.1543C40.2068 27.5418 36.9747 23.6491 32.6218 21.7381C32.1499 21.5257 31.5837 21.7499 31.3832 22.2217C31.1709 22.7054 31.3832 23.2716 31.8551 23.4722L31.855 23.4721Z" fill="black"/>
<path d="M32.9756 18.4235C35.8421 19.497 38.4137 21.29 40.4191 23.6139C42.4599 25.9732 43.8637 28.8397 44.4888 31.8832C44.5832 32.3314 44.9725 32.6381 45.4089 32.6381C45.4679 32.6381 45.5387 32.6263 45.5977 32.6145C46.1049 32.5084 46.4352 32.0129 46.3291 31.5057C45.6449 28.1437 44.0878 24.9824 41.8346 22.3754C39.617 19.8156 36.7859 17.8338 33.6244 16.6541C33.1407 16.4772 32.5981 16.7131 32.4093 17.2086C32.2205 17.704 32.4919 18.2466 32.9755 18.4236L32.9756 18.4235Z" fill="black"/>
<rect x="0.5" y="0.5" width="63" height="63" rx="31.5" stroke="black"/>
</svg>
