<svg width="64" height="64" viewBox="0 0 64 64" fill="none" xmlns="http://www.w3.org/2000/svg">
<path d="M32 9C19.2979 9 9 19.2979 9 32C9 44.7031 19.2969 55 32 55C44.7031 55 55 44.7031 55 32C55 19.2979 44.7031 9 32 9V9ZM33.8186 42.2565V45.6638H30.1879V42.4609C28.5072 42.3004 26.8303 41.7478 25.7522 40.9769L25.2416 40.6111L26.5623 36.9235L27.4467 37.5142C28.5926 38.2797 30.0658 38.719 31.4866 38.719C33.2151 38.719 34.3749 37.8215 34.3749 36.4862C34.3749 35.5886 34.0103 34.6106 31.3611 33.5359C28.5591 32.4381 25.6851 30.8421 25.6851 27.3585C25.6851 24.5589 27.5152 22.379 30.4059 21.6482V18.3371H34.0054V21.4226C35.3746 21.5623 36.5763 21.9428 37.6591 22.5774L38.2651 22.932L36.8901 26.5618L36.045 26.079C35.5459 25.7933 34.3773 25.1256 32.5179 25.1256C30.6866 25.1256 30.0355 26.0848 30.0355 26.9823C30.0355 27.9534 30.5206 28.5876 33.3989 29.7781C35.8909 30.7946 38.7568 32.4531 38.7568 36.2666C38.7579 39.1606 36.8011 41.4952 33.8185 42.2565L33.8186 42.2565Z" fill="black"/>
</svg>
