<svg width="64" height="64" viewBox="0 0 64 64" fill="none" xmlns="http://www.w3.org/2000/svg">
<path fill-rule="evenodd" clip-rule="evenodd" d="M49.247 11.7321V20.5017C49.247 20.8246 50 21.3958 50 21.8141C50 22.2324 49.247 22.804 49.247 23.1265V39.22C49.247 39.5425 50 40.1141 50 40.5324C50 40.9507 49.247 41.5219 49.247 41.8448V51.3029C49.247 51.733 49.7851 52.0645 49.7851 52.7959C49.7851 56.0042 42.5604 58.605 33.6489 58.605C24.7371 58.605 17.5126 56.0042 17.5126 52.7959C17.5126 52.0645 18.0503 51.733 18.0503 51.3029V41.8448C18.0503 41.5219 17.2973 40.9507 17.2973 40.5324C17.2973 40.1141 18.0503 39.5424 18.0503 39.22V23.1265C18.0503 22.8036 17.2973 22.232 17.2973 21.8137C17.2973 21.3953 18.0503 20.8241 18.0503 20.5013V11.7317C18.0503 11.344 17.5126 11.008 17.5126 10.303C17.5126 7.92644 24.7373 6 33.6489 6C42.5607 6 49.7851 7.92644 49.7851 10.303C49.7851 11.008 49.247 11.3443 49.247 11.7317V11.7321ZM33.6482 13.4233C41.1342 13.4233 47.2023 12.0746 47.2023 10.4112C47.2023 8.74776 41.1338 7.39903 33.6482 7.39903C26.1622 7.39903 20.0931 8.74776 20.0931 10.4112C20.0931 12.0746 26.162 13.4233 33.6482 13.4233V13.4233ZM33.7481 36.2959C33.1202 36.2959 32.5315 36.1288 32.0235 35.8364L28.3422 42.103C29.9185 43.0166 31.7491 43.5394 33.7021 43.5394C35.6484 43.5394 37.4734 43.0199 39.0459 42.1119L35.3871 35.8837C34.8991 36.1467 34.3409 36.2959 33.7481 36.2959V36.2959ZM28.3997 23.5351C25.1731 25.3788 22.998 28.8529 22.998 32.8354C22.998 32.881 22.9984 32.9263 22.9988 32.9716L30.2887 32.9165C30.2883 32.8896 30.2879 32.8627 30.2879 32.8354C30.2879 31.5678 30.9692 30.4596 31.986 29.8566L28.3997 23.5351ZM37.2084 32.8354C37.2084 32.8574 37.208 32.8794 37.2076 32.901L44.4049 32.9557C44.4058 32.9157 44.4058 32.8753 44.4058 32.8354C44.4058 28.8529 42.231 25.3788 39.0044 23.5351L35.4405 29.8168C36.4956 30.4096 37.2084 31.5394 37.2084 32.8355V32.8354ZM33.7482 35.1883C35.0476 35.1883 36.1011 34.1347 36.1011 32.8354C36.1011 31.536 35.0476 30.4825 33.7482 30.4825C32.4488 30.4825 31.3953 31.536 31.3953 32.8354C31.3953 34.1347 32.4488 35.1883 33.7482 35.1883Z" fill="black"/>
</svg>
