<svg width="64" height="64" viewBox="0 0 64 64" fill="none" xmlns="http://www.w3.org/2000/svg">
<path d="M36.8889 16.4444H26.6667V32.1066H36.96C39.1401 32.2036 41.2704 31.4364 42.8881 29.9718C44.5059 28.5072 45.4804 26.4634 45.6 24.2844C45.5454 23.1968 45.2765 22.1306 44.8087 21.1472C44.3408 20.1638 43.6833 19.2825 42.8738 18.554C42.0644 17.8255 41.1189 17.2641 40.0918 16.902C39.0647 16.54 37.9763 16.3845 36.8889 16.4444Z" fill="black"/>
<path d="M32 3.55554C26.3742 3.55554 20.8748 5.22378 16.1971 8.34929C11.5194 11.4748 7.87365 15.9172 5.72076 21.1148C3.56787 26.3123 3.00457 32.0315 4.10211 37.5492C5.19964 43.0669 7.90871 48.1352 11.8867 52.1132C15.8648 56.0913 20.9331 58.8003 26.4508 59.8979C31.9684 60.9954 37.6877 60.4321 42.8852 58.2792C48.0828 56.1263 52.5252 52.4805 55.6507 47.8029C58.7762 43.1252 60.4444 37.6258 60.4444 32C60.4444 24.456 57.4476 17.2211 52.1133 11.8867C46.7789 6.55236 39.5439 3.55554 32 3.55554ZM36.8889 36.5511H26.6667V39.1111H41.4044C41.8759 39.1111 42.3281 39.2984 42.6615 39.6318C42.9949 39.9652 43.1822 40.4174 43.1822 40.8889C43.1822 41.3604 42.9949 41.8126 42.6615 42.146C42.3281 42.4794 41.8759 42.6666 41.4044 42.6666H26.6667V51.5555C26.6667 52.1449 26.4325 52.7101 26.0158 53.1269C25.599 53.5436 25.0338 53.7778 24.4444 53.7778C23.8551 53.7778 23.2898 53.5436 22.8731 53.1269C22.4563 52.7101 22.2222 52.1449 22.2222 51.5555V42.6666H20C19.5285 42.6666 19.0763 42.4794 18.7429 42.146C18.4095 41.8126 18.2222 41.3604 18.2222 40.8889C18.2222 40.4174 18.4095 39.9652 18.7429 39.6318C19.0763 39.2984 19.5285 39.1111 20 39.1111H22.1511V36.5511H20C19.4106 36.5511 18.8454 36.317 18.4287 35.9002C18.0119 35.4835 17.7778 34.9182 17.7778 34.3289C17.7778 33.7395 18.0119 33.1743 18.4287 32.7575C18.8454 32.3408 19.4106 32.1067 20 32.1067H22.1511V14.2222C22.1511 13.6328 22.3852 13.0676 22.802 12.6509C23.2187 12.2341 23.784 12 24.3733 12H36.8178C40.1787 11.8945 43.4442 13.127 45.8973 15.4268C48.3505 17.7266 49.7908 20.9059 49.9022 24.2667C49.7907 27.6163 48.3608 30.7864 45.9237 33.087C43.4865 35.3876 40.2394 36.6326 36.8889 36.5511Z" fill="black"/>
</svg>
