<svg width="64" height="64" viewBox="0 0 64 64" fill="none" xmlns="http://www.w3.org/2000/svg">
<path d="M53.3333 21.3333H45.3333V10.6666H2.66667V45.3333H8C8 49.76 11.5733 53.3333 16 53.3333C20.4267 53.3333 24 49.76 24 45.3333H40C40 49.76 43.5733 53.3333 48 53.3333C52.4267 53.3333 56 49.76 56 45.3333H61.3333V32L53.3333 21.3333ZM16 49.3333C13.7867 49.3333 12 47.5466 12 45.3333C12 43.12 13.7867 41.3333 16 41.3333C18.2133 41.3333 20 43.12 20 45.3333C20 47.5466 18.2133 49.3333 16 49.3333ZM40 18.6666H34.6667V37.3333H29.3333V18.6666H24V37.3333H18.6667V18.6666H13.3333V37.3333H8V16H40V18.6666ZM48 49.3333C45.7867 49.3333 44 47.5466 44 45.3333C44 43.12 45.7867 41.3333 48 41.3333C50.2133 41.3333 52 43.12 52 45.3333C52 47.5466 50.2133 49.3333 48 49.3333ZM45.3333 32V25.3333H52L57.2267 32H45.3333Z" fill="black"/>
</svg>
