<svg width="64" height="64" viewBox="0 0 64 64" fill="none" xmlns="http://www.w3.org/2000/svg">
<path d="M51.7844 42.0097C50.1508 39.0698 45.9426 35.5371 44.2054 33.9998C43.7299 33.5789 43.679 32.8507 44.1118 32.3853C47.4272 28.8226 50.079 24.729 50.9917 22.2554C51.3944 21.1627 50.5608 20.0082 49.3862 20.0082H45.9745C44.8499 20.0082 44.1918 20.4118 43.8781 21.0545C41.1227 26.7008 38.7591 29.1444 37.1046 30.5726C36.1782 31.3726 34.7337 30.7099 34.7337 29.4926C34.7337 27.1472 34.7337 24.1154 34.7337 21.9654C34.7337 20.9227 33.881 20.0791 32.8292 20.0791L26.5965 20.0082C25.812 20.0082 25.3638 20.8964 25.8347 21.5191L26.8638 22.9963C27.2511 23.5081 27.4601 24.1309 27.4601 24.7699L27.4547 31.4226C27.4547 32.5798 26.052 33.1453 25.2193 32.3344C22.402 29.5908 19.9575 23.9881 19.0775 21.3091C18.823 20.5336 18.0966 20.01 17.273 20.0082L13.9121 20C12.6512 20 11.7294 21.1954 12.0722 22.3991C15.143 33.178 21.4439 43.4324 32.6728 44.5442C33.7792 44.6533 34.7337 43.7624 34.7337 42.6597V39.1634C34.7337 38.1607 35.52 37.2989 36.5309 37.2734C36.5664 37.2725 36.6019 37.2725 36.6373 37.2725C39.6073 37.2725 42.9336 41.5952 44.0972 43.617C44.4318 44.1988 45.0572 44.5533 45.7336 44.5533H50.2544C51.5735 44.5533 52.4198 43.1543 51.7844 42.0097Z" fill="black"/>
<rect x="0.5" y="0.5" width="63" height="63" rx="31.5" stroke="black"/>
</svg>
