 <svg display="none" xmlns="http://www.w3.org/2000/svg">
    <symbol viewBox="0 0 79 121" id="logo">
    <g>
<path fill-rule="evenodd" clip-rule="evenodd" d="M20.416 12.5254C24.7606 12.5254 28.2796 14.1108 28.2796 16.0703C28.2796 18.0299 24.7606 19.6152 20.416 19.6152C16.0713 19.6152 12.5523 18.0299 12.5523 16.0703C12.5523 14.1108 16.0713 12.5254 20.416 12.5254ZM39.4853 54.2078C40.2126 57.3391 41.058 59.8304 41.982 61.6915C42.9158 63.5427 44.341 65.5515 46.2578 67.7277L47.0835 68.6533C49.59 71.44 50.8285 74.2366 50.8285 77.0233C50.8285 80.1152 49.7178 82.7542 47.4865 84.9698C45.2552 87.1755 42.5816 88.2883 39.4853 88.2883C36.3889 88.2883 33.7251 87.1755 31.4938 84.9698C29.2625 82.7641 28.1518 80.1152 28.1518 77.0233C28.1518 74.2366 29.4001 71.44 31.8969 68.6533L32.7225 67.7277C34.6393 65.5614 36.0646 63.5526 36.9984 61.6915C37.9322 59.8304 38.7677 57.3293 39.4853 54.2078ZM31.9755 75.3493C31.9165 74.7191 32.3883 74.1578 33.0174 74.0987C33.6465 74.0396 34.2068 74.5123 34.2658 75.1425C34.4132 76.6688 34.7474 78.0868 35.3863 79.2979C36.0056 80.4697 36.9197 81.484 38.2467 82.2619C38.7972 82.5868 38.9741 83.286 38.6596 83.8374C38.3352 84.3888 37.6373 84.5661 37.0868 84.251C35.3568 83.2367 34.1576 81.9172 33.3516 80.3713C32.5653 78.8745 32.1524 77.171 31.9755 75.3493ZM39.4164 0C49.8947 0 59.4294 1.61491 66.369 4.22437C73.8985 7.05046 78.5478 11.1567 78.5478 15.8537C78.5478 17.5375 77.9482 19.1426 76.8375 20.6393V37.8322C75.9528 38.7677 74.9011 39.6342 73.692 40.4318C65.5434 45.8181 50.9072 47.9155 36.8018 47.4823C22.7357 47.049 9.30857 44.1146 3.53863 39.4373C3.00784 39.004 2.54585 38.5707 2.17233 38.1178L2.29028 37.9897V21.0332C0.982954 19.4281 0.275227 17.6852 0.275227 15.8537C0.275227 11.1468 4.93443 7.05046 12.454 4.22437C19.4035 1.61491 28.9382 0 39.4164 0ZM78.3316 40.3432C78.7739 41.2688 79 41.8301 79 43.2087C79 44.5872 78.2431 46.6945 76.8473 48.2799V82.6558C75.9627 83.5912 74.9109 84.4578 73.7019 85.2554C65.5532 90.6417 50.917 92.7391 36.8116 92.3058C22.7357 91.8726 9.30857 88.9382 3.53863 84.251C2.97835 83.798 2.50653 83.3352 2.12318 82.8724C2.18216 82.8035 2.23131 82.7444 2.29028 82.6853V48.4177C0.806022 46.793 0 44.5675 0 43.1988C0 41.8301 0.196591 41.4067 0.579943 40.5401C0.943636 40.9143 1.33682 41.2688 1.75949 41.6134C8.01107 46.6847 22.0968 49.8455 36.733 50.2985C51.3397 50.7515 66.5951 48.5064 75.2549 42.7852C76.3952 42.0369 77.4174 41.2196 78.3316 40.3432ZM78.3709 85.1175C78.7838 86.0136 79 86.5355 79 87.8944C79 89.2533 78.2431 91.3802 76.8473 92.9656V101.424C78.017 102.852 78.6461 104.368 78.6461 105.944C78.6461 114.255 61.1201 121 39.5049 121C17.8898 121 0.363693 114.265 0.363693 105.944C0.363693 104.309 1.04193 102.744 2.29028 101.276V93.1133C0.806022 91.4787 0 89.2434 0 87.8944C0 86.5453 0.186761 86.1613 0.540625 85.3243C0.914147 85.7083 1.31716 86.0825 1.75949 86.437C8.01107 91.5082 22.0968 94.6691 36.733 95.1221C51.3397 95.575 66.5951 93.3299 75.2549 87.6088C76.405 86.8407 77.4568 86.0136 78.3709 85.1175ZM64.639 7.88745C58.2302 5.47494 49.3148 3.98804 39.4164 3.98804C29.5181 3.98804 20.6027 5.47494 14.1939 7.88745C8.36494 10.0735 4.7575 12.9094 4.7575 15.8537C4.7575 18.8078 8.36494 21.6339 14.1939 23.8199C20.6027 26.2226 29.5181 27.7193 39.4164 27.7193C49.3148 27.7193 58.2302 26.2324 64.639 23.8199C70.468 21.6339 74.0754 18.7979 74.0754 15.8537C74.0754 12.9094 70.468 10.0735 64.639 7.88745ZM20.416 14.3963C23.0601 14.3963 25.2029 15.1447 25.2029 16.0703C25.2029 16.9959 23.0601 17.7443 20.416 17.7443C17.7718 17.7443 15.629 16.9959 15.629 16.0703C15.629 15.1545 17.7718 14.3963 20.416 14.3963Z"/>
</g>
    </symbol>

        <symbol viewBox="0 0 50 45" id="plus-1">
    <g>
<path d="M34.1429 13.381L25 43.8571M40.2381 1.19048L49.381 13.381L25 43.8571L0.619049 13.381L9.78933 1.19048H40.2381ZM0.619049 13.381H49.381H0.619049ZM15.8571 13.381L25 43.8571L15.8571 13.381Z" stroke-linecap="round" stroke-linejoin="round"/>
<path d="M9.78934 1.19048L15.8571 13.381L25 1.19048L34.1429 13.381L40.2381 1.19048"  stroke-linecap="round" stroke-linejoin="round"/>
</g>
    </symbol>
    
        <symbol viewBox="0 0 64 64" id="plus-2">
    <g>
<path d="M33.6 8C33.6 7.57566 33.4314 7.16869 33.1314 6.86863C32.8313 6.56857 32.4243 6.4 32 6.4C31.5757 6.4 31.1687 6.56857 30.8686 6.86863C30.5686 7.16869 30.4 7.57566 30.4 8V11.2C30.4 11.6243 30.5686 12.0313 30.8686 12.3314C31.1687 12.6314 31.5757 12.8 32 12.8C32.4243 12.8 32.8313 12.6314 33.1314 12.3314C33.4314 12.0313 33.6 11.6243 33.6 11.2V8ZM32 27.2C32 26.7757 31.8314 26.3687 31.5314 26.0686C31.2313 25.7686 30.8243 25.6 30.4 25.6C29.9757 25.6 29.5687 25.7686 29.2686 26.0686C28.9686 26.3687 28.8 26.7757 28.8 27.2V33.6C28.8 34.0243 28.9686 34.4313 29.2686 34.7314C29.5687 35.0314 29.9757 35.2 30.4 35.2H35.2C35.6243 35.2 36.0313 35.0314 36.3314 34.7314C36.6314 34.4313 36.8 34.0243 36.8 33.6C36.8 33.1757 36.6314 32.7687 36.3314 32.4686C36.0313 32.1686 35.6243 32 35.2 32H32V27.2ZM32 17.6C30.109 17.6 28.2364 17.9725 26.4894 18.6961C24.7423 19.4198 23.1548 20.4805 21.8177 21.8177C20.4805 23.1548 19.4198 24.7423 18.6961 26.4894C17.9725 28.2364 17.6 30.109 17.6 32C17.6 33.891 17.9725 35.7636 18.6961 37.5106C19.4198 39.2577 20.4805 40.8452 21.8177 42.1823C23.1548 43.5195 24.7423 44.5802 26.4894 45.3039C28.2364 46.0275 30.109 46.4 32 46.4C35.8191 46.4 39.4818 44.8829 42.1823 42.1823C44.8829 39.4818 46.4 35.8191 46.4 32C46.4 28.1809 44.8829 24.5182 42.1823 21.8177C39.4818 19.1171 35.8191 17.6 32 17.6ZM20.8 32C20.8 30.5292 21.0897 29.0728 21.6525 27.7139C22.2154 26.3551 23.0404 25.1204 24.0804 24.0804C25.1204 23.0404 26.3551 22.2154 27.7139 21.6526C29.0728 21.0897 30.5292 20.8 32 20.8C33.4708 20.8 34.9272 21.0897 36.2861 21.6526C37.6449 22.2154 38.8796 23.0404 39.9196 24.0804C40.9596 25.1204 41.7846 26.3551 42.3475 27.7139C42.9103 29.0728 43.2 30.5292 43.2 32C43.2 34.9704 42.02 37.8192 39.9196 39.9196C37.8192 42.02 34.9704 43.2 32 43.2C29.0296 43.2 26.1808 42.02 24.0804 39.9196C21.98 37.8192 20.8 34.9704 20.8 32ZM32 51.2C32.4243 51.2 32.8313 51.3686 33.1314 51.6686C33.4314 51.9687 33.6 52.3757 33.6 52.8V56C33.6 56.4243 33.4314 56.8313 33.1314 57.1314C32.8313 57.4314 32.4243 57.6 32 57.6C31.5757 57.6 31.1687 57.4314 30.8686 57.1314C30.5686 56.8313 30.4 56.4243 30.4 56V52.8C30.4 52.3757 30.5686 51.9687 30.8686 51.6686C31.1687 51.3686 31.5757 51.2 32 51.2ZM8 30.4C7.57565 30.4 7.16869 30.5686 6.86863 30.8686C6.56857 31.1687 6.4 31.5757 6.4 32C6.4 32.4243 6.56857 32.8313 6.86863 33.1314C7.16869 33.4314 7.57565 33.6 8 33.6H11.2C11.6243 33.6 12.0313 33.4314 12.3314 33.1314C12.6314 32.8313 12.8 32.4243 12.8 32C12.8 31.5757 12.6314 31.1687 12.3314 30.8686C12.0313 30.5686 11.6243 30.4 11.2 30.4H8ZM51.2 32C51.2 31.5757 51.3686 31.1687 51.6686 30.8686C51.9687 30.5686 52.3757 30.4 52.8 30.4H56C56.4243 30.4 56.8313 30.5686 57.1314 30.8686C57.4314 31.1687 57.6 31.5757 57.6 32C57.6 32.4243 57.4314 32.8313 57.1314 33.1314C56.8313 33.4314 56.4243 33.6 56 33.6H52.8C52.3757 33.6 51.9687 33.4314 51.6686 33.1314C51.3686 32.8313 51.2 32.4243 51.2 32ZM13.2672 48.4672C12.9668 48.7676 12.798 49.1751 12.798 49.6C12.798 50.0249 12.9668 50.4324 13.2672 50.7328C13.5676 51.0332 13.9751 51.202 14.4 51.202C14.8249 51.202 15.2324 51.0332 15.5328 50.7328L18.7328 47.5328C18.8816 47.384 18.9996 47.2074 19.0801 47.0131C19.1606 46.8187 19.202 46.6104 19.202 46.4C19.202 46.1896 19.1606 45.9813 19.0801 45.7869C18.9996 45.5926 18.8816 45.416 18.7328 45.2672C18.584 45.1184 18.4074 45.0004 18.2131 44.9199C18.0187 44.8394 17.8104 44.798 17.6 44.798C17.3896 44.798 17.1813 44.8394 16.9869 44.9199C16.7926 45.0004 16.616 45.1184 16.4672 45.2672L13.2672 48.4672ZM45.2672 16.4672L48.4672 13.2672C48.7676 12.9668 49.1751 12.798 49.6 12.798C50.0249 12.798 50.4324 12.9668 50.7328 13.2672C51.0332 13.5676 51.202 13.9751 51.202 14.4C51.202 14.8249 51.0332 15.2324 50.7328 15.5328L47.5328 18.7328C47.384 18.8816 47.2074 18.9996 47.0131 19.0801C46.8187 19.1606 46.6104 19.202 46.4 19.202C46.1896 19.202 45.9813 19.1606 45.7869 19.0801C45.5926 18.9996 45.416 18.8816 45.2672 18.7328C45.1184 18.584 45.0004 18.4074 44.9199 18.2131C44.8394 18.0187 44.798 17.8104 44.798 17.6C44.798 17.3896 44.8394 17.1813 44.9199 16.9869C45.0004 16.7926 45.1184 16.616 45.2672 16.4672ZM15.5328 13.2672C15.384 13.1184 15.2074 13.0004 15.0131 12.9199C14.8187 12.8394 14.6104 12.798 14.4 12.798C14.1896 12.798 13.9813 12.8394 13.7869 12.9199C13.5926 13.0004 13.416 13.1184 13.2672 13.2672C13.1184 13.416 13.0004 13.5926 12.9199 13.7869C12.8394 13.9813 12.798 14.1896 12.798 14.4C12.798 14.6104 12.8394 14.8187 12.9199 15.0131C13.0004 15.2074 13.1184 15.384 13.2672 15.5328L16.4672 18.7328C16.7676 19.0332 17.1751 19.202 17.6 19.202C18.0249 19.202 18.4324 19.0332 18.7328 18.7328C19.0332 18.4324 19.202 18.0249 19.202 17.6C19.202 17.1751 19.0332 16.7676 18.7328 16.4672L15.5328 13.2672ZM47.5328 45.2672L50.7328 48.4672C51.0332 48.7676 51.202 49.1751 51.202 49.6C51.202 50.0249 51.0332 50.4324 50.7328 50.7328C50.4324 51.0332 50.0249 51.202 49.6 51.202C49.1751 51.202 48.7676 51.0332 48.4672 50.7328L45.2672 47.5328C45.1184 47.384 45.0004 47.2074 44.9199 47.0131C44.8394 46.8187 44.798 46.6104 44.798 46.4C44.798 46.1896 44.8394 45.9813 44.9199 45.7869C45.0004 45.5926 45.1184 45.416 45.2672 45.2672C45.416 45.1184 45.5926 45.0004 45.7869 44.9199C45.9813 44.8394 46.1896 44.798 46.4 44.798C46.6104 44.798 46.8187 44.8394 47.0131 44.9199C47.2074 45.0004 47.384 45.1184 47.5328 45.2672Z"/>
</g>
    </symbol>
    
        <symbol viewBox="0 0 64 64" id="plus-3">
    <g>
<path d="M16 18C14.4177 18 12.871 17.5308 11.5554 16.6518C10.2398 15.7727 9.21447 14.5233 8.60896 13.0615C8.00346 11.5997 7.84504 9.99113 8.15372 8.43928C8.4624 6.88743 9.22433 5.46197 10.3431 4.34315C11.462 3.22433 12.8874 2.4624 14.4393 2.15372C15.9911 1.84504 17.5997 2.00346 19.0615 2.60896C20.5233 3.21446 21.7727 4.23984 22.6518 5.55544C23.5308 6.87103 24 8.41775 24 10C24 12.1217 23.1571 14.1566 21.6569 15.6569C20.1566 17.1571 18.1217 18 16 18ZM16 6C15.2089 6 14.4355 6.2346 13.7777 6.67412C13.1199 7.11365 12.6072 7.73836 12.3045 8.46927C12.0017 9.20017 11.9225 10.0044 12.0769 10.7804C12.2312 11.5563 12.6122 12.269 13.1716 12.8284C13.731 13.3878 14.4437 13.7688 15.2196 13.9231C15.9956 14.0775 16.7998 13.9983 17.5307 13.6955C18.2616 13.3928 18.8864 12.8801 19.3259 12.2223C19.7654 11.5645 20 10.7911 20 10C20 8.93913 19.5786 7.92172 18.8284 7.17157C18.0783 6.42143 17.0609 6 16 6ZM48 18C46.4178 18 44.871 17.5308 43.5554 16.6518C42.2398 15.7727 41.2145 14.5233 40.609 13.0615C40.0035 11.5997 39.845 9.99113 40.1537 8.43928C40.4624 6.88743 41.2243 5.46197 42.3431 4.34315C43.462 3.22433 44.8874 2.4624 46.4393 2.15372C47.9911 1.84504 49.5997 2.00346 51.0615 2.60896C52.5233 3.21446 53.7727 4.23984 54.6518 5.55544C55.5308 6.87103 56 8.41775 56 10C56 12.1217 55.1571 14.1566 53.6569 15.6569C52.1566 17.1571 50.1217 18 48 18ZM48 6C47.2089 6 46.4355 6.2346 45.7777 6.67412C45.1199 7.11365 44.6072 7.73836 44.3045 8.46927C44.0017 9.20017 43.9225 10.0044 44.0769 10.7804C44.2312 11.5563 44.6122 12.269 45.1716 12.8284C45.731 13.3878 46.4437 13.7688 47.2196 13.9231C47.9956 14.0775 48.7998 13.9983 49.5307 13.6955C50.2616 13.3928 50.8864 12.8801 51.3259 12.2223C51.7654 11.5645 52 10.7911 52 10C52 8.93913 51.5786 7.92172 50.8284 7.17157C50.0783 6.42143 49.0609 6 48 6ZM52 60H44C42.9391 60 41.9217 59.5786 41.1716 58.8284C40.4214 58.0783 40 57.0609 40 56V42H44V56H52V38H56V26C56 25.4696 55.7893 24.9609 55.4142 24.5858C55.0391 24.2107 54.5304 24 54 24H41.16L32 40L22.84 24H10C9.46957 24 8.96086 24.2107 8.58579 24.5858C8.21071 24.9609 8 25.4696 8 26V38H12V56H20V42H24V56C24 57.0609 23.5786 58.0783 22.8284 58.8284C22.0783 59.5786 21.0609 60 20 60H12C10.9391 60 9.92172 59.5786 9.17157 58.8284C8.42143 58.0783 8 57.0609 8 56V42C6.93913 42 5.92172 41.5786 5.17157 40.8284C4.42143 40.0783 4 39.0609 4 38V26C4 24.4087 4.63214 22.8826 5.75736 21.7574C6.88258 20.6321 8.4087 20 10 20H25.16L32 32L38.84 20H54C55.5913 20 57.1174 20.6321 58.2426 21.7574C59.3679 22.8826 60 24.4087 60 26V38C60 39.0609 59.5786 40.0783 58.8284 40.8284C58.0783 41.5786 57.0609 42 56 42V56C56 57.0609 55.5786 58.0783 54.8284 58.8284C54.0783 59.5786 53.0609 60 52 60Z"/>
</g>
    </symbol>

</svg>